<?xml version="1.0" encoding="utf-8"?>
<!-- Generator: Adobe Illustrator 16.0.0, SVG Export Plug-In . SVG Version: 6.00 Build 0)  -->
<!DOCTYPE svg PUBLIC "-//W3C//DTD SVG 1.1//EN" "http://www.w3.org/Graphics/SVG/1.1/DTD/svg11.dtd">
<svg version="1.1" id="Layer_1" xmlns="http://www.w3.org/2000/svg" xmlns:xlink="http://www.w3.org/1999/xlink" x="0px" y="0px"
	 width="216px" height="144px" viewBox="0 0 216 144" enable-background="new 0 0 216 144" xml:space="preserve">
<line fill="none" stroke="#F15A29" stroke-width="2" stroke-miterlimit="10" x1="84.732" y1="99.168" x2="135.757" y2="99.168"/>
<line fill="none" stroke="#F15A29" stroke-width="2" stroke-miterlimit="10" x1="30.585" y1="56.367" x2="76.39" y2="56.367"/>
<path fill="none" stroke="#F15A29" stroke-width="2" stroke-miterlimit="10" d="M47.503,77.463
	c0,11.998,17.662,21.705,39.488,21.705"/>
<line fill="none" stroke="#F15A29" stroke-width="2" stroke-miterlimit="10" x1="46.731" y1="78.199" x2="97.756" y2="78.199"/>
<line fill="none" stroke="#F15A29" stroke-width="2" stroke-miterlimit="10" x1="8.882" y1="35.313" x2="95.282" y2="35.313"/>
<line fill="none" stroke="#F15A29" stroke-width="2" stroke-miterlimit="10" x1="27.088" y1="56.367" x2="91.888" y2="56.367"/>
<path fill="none" stroke="#F15A29" stroke-width="2" stroke-miterlimit="10" d="M27.977,56.428
	c0,11.998,15.752,21.705,35.218,21.705"/>
<path fill="none" stroke="#F15A29" stroke-width="2" stroke-miterlimit="10" d="M9.454,34.661c0,11.999,15.751,21.707,35.218,21.707
	"/>
<ellipse fill="#F15A29" stroke="#F15A29" stroke-miterlimit="10" cx="135.508" cy="67.281" rx="67.281" ry="41.551"/>
<ellipse fill="none" stroke="#FFFFFF" stroke-width="2" stroke-miterlimit="10" cx="136.176" cy="66.916" rx="59.423" ry="34.41"/>
<text transform="matrix(0.9278 0 0 1 100.3286 76.2354)" fill="#FFFFFF" font-family="'Cochin'" font-size="44.9706">rseg</text>
</svg>
